<?xml version="1.0" encoding="UTF-8" standalone="no"?><svg xmlns="http://www.w3.org/2000/svg" xmlns:xlink="http://www.w3.org/1999/xlink" contentScriptType="application/ecmascript" contentStyleType="text/css" height="216px" preserveAspectRatio="none" style="width:1489px;height:216px;" version="1.1" viewBox="0 0 1489 216" width="1489px" zoomAndPan="magnify"><defs/><g><!--MD5=[c33db22cd91d622c105bbe7bf67b0931]
cluster Components--><path d="M622,24 L712,24 A4.5,4.5 0 0 1 715,27 L722,43.9688 L767,43.9688 A3,3 0 0 1 770,46.9688 L770,95 A3,3 0 0 1 767,98 L622,98 A3,3 0 0 1 619,95 L619,27 A3,3 0 0 1 622,24 " fill="#FFFFFF" style="stroke: #000000; stroke-width: 1.5;"/><line style="stroke: #000000; stroke-width: 1.5;" x1="619" x2="722" y1="43.9688" y2="43.9688"/><text fill="#000000" font-family="Tahoma, sans-serif" font-size="12" font-weight="bold" lengthAdjust="spacingAndGlyphs" textLength="90" x="623" y="37.1387">Components</text><!--MD5=[cde3b19005abbf39f05cbf8a9b26b4cc]
cluster Dependency--><path d="M25,122 L114,122 A4.5,4.5 0 0 1 117,125 L124,141.9688 L1474,141.9688 A3,3 0 0 1 1477,144.9688 L1477,201 A3,3 0 0 1 1474,204 L25,204 A3,3 0 0 1 22,201 L22,125 A3,3 0 0 1 25,122 " fill="#FFFFFF" style="stroke: #000000; stroke-width: 1.5;"/><line style="stroke: #000000; stroke-width: 1.5;" x1="22" x2="124" y1="141.9688" y2="141.9688"/><text fill="#000000" font-family="Tahoma, sans-serif" font-size="12" font-weight="bold" lengthAdjust="spacingAndGlyphs" textLength="89" x="26" y="135.1387">Dependency</text><ellipse cx="656.1777" cy="68.8774" fill="#F8F8F8" rx="20.6777" ry="12.8774" style="stroke: #383838; stroke-width: 0.5;"/><text fill="#000000" font-family="Tahoma, sans-serif" font-size="12" font-weight="bold" lengthAdjust="spacingAndGlyphs" textLength="25" x="643.6777" y="72.3618">run</text><ellipse cx="721.7843" cy="68.8774" fill="#F8F8F8" rx="31.2843" ry="12.8774" style="stroke: #383838; stroke-width: 0.5;"/><text fill="#000000" font-family="Tahoma, sans-serif" font-size="12" lengthAdjust="spacingAndGlyphs" textLength="40" x="701.7843" y="72.3618">server</text><!--MD5=[92c76255242b65bb2780cba28222c775]
entity axios--><rect fill="#F8F8F8" height="33.9688" rx="3" ry="3" style="stroke: #383838; stroke-width: 1.0;" width="53" x="1407.5" y="154"/><rect fill="#F8F8F8" height="5" style="stroke: #383838; stroke-width: 1.0;" width="10" x="1402.5" y="159"/><rect fill="#F8F8F8" height="5" style="stroke: #383838; stroke-width: 1.0;" width="10" x="1402.5" y="177.9688"/><text fill="#000000" font-family="Tahoma, sans-serif" font-size="12" lengthAdjust="spacingAndGlyphs" textLength="33" x="1417.5" y="175.1387">axios</text><!--MD5=[d69ee894cd1c755b0455fe65f6cb1789]
entity axios-cache-interceptor--><rect fill="#F8F8F8" height="33.9688" rx="3" ry="3" style="stroke: #383838; stroke-width: 1.0;" width="169" x="1224.5" y="154"/><rect fill="#F8F8F8" height="5" style="stroke: #383838; stroke-width: 1.0;" width="10" x="1219.5" y="159"/><rect fill="#F8F8F8" height="5" style="stroke: #383838; stroke-width: 1.0;" width="10" x="1219.5" y="177.9688"/><text fill="#000000" font-family="Tahoma, sans-serif" font-size="12" lengthAdjust="spacingAndGlyphs" textLength="149" x="1234.5" y="175.1387">axios-cache-interceptor</text><!--MD5=[7a415defb66dd07fe9516c304bb7ab51]
entity body-parser--><rect fill="#F8F8F8" height="33.9688" rx="3" ry="3" style="stroke: #383838; stroke-width: 1.0;" width="97" x="1113.5" y="154"/><rect fill="#F8F8F8" height="5" style="stroke: #383838; stroke-width: 1.0;" width="10" x="1108.5" y="159"/><rect fill="#F8F8F8" height="5" style="stroke: #383838; stroke-width: 1.0;" width="10" x="1108.5" y="177.9688"/><text fill="#000000" font-family="Tahoma, sans-serif" font-size="12" lengthAdjust="spacingAndGlyphs" textLength="77" x="1123.5" y="175.1387">body-parser</text><!--MD5=[ad9b9a60b058c21e10e2b8886cc90cc3]
entity climate-plots-config--><rect fill="#F8F8F8" height="33.9688" rx="3" ry="3" style="stroke: #383838; stroke-width: 1.0;" width="143" x="956.5" y="154"/><rect fill="#F8F8F8" height="5" style="stroke: #383838; stroke-width: 1.0;" width="10" x="951.5" y="159"/><rect fill="#F8F8F8" height="5" style="stroke: #383838; stroke-width: 1.0;" width="10" x="951.5" y="177.9688"/><text fill="#000000" font-family="Tahoma, sans-serif" font-size="12" lengthAdjust="spacingAndGlyphs" textLength="123" x="966.5" y="175.1387">climate-plots-config</text><!--MD5=[564a394d57ce3e0a92ac6699042b9ef1]
entity cors--><rect fill="#F8F8F8" height="33.9688" rx="3" ry="3" style="stroke: #383838; stroke-width: 1.0;" width="47" x="895.5" y="154"/><rect fill="#F8F8F8" height="5" style="stroke: #383838; stroke-width: 1.0;" width="10" x="890.5" y="159"/><rect fill="#F8F8F8" height="5" style="stroke: #383838; stroke-width: 1.0;" width="10" x="890.5" y="177.9688"/><text fill="#000000" font-family="Tahoma, sans-serif" font-size="12" lengthAdjust="spacingAndGlyphs" textLength="27" x="905.5" y="175.1387">cors</text><!--MD5=[6d151e53a42aadf92577082572a20d90]
entity express--><rect fill="#F8F8F8" height="33.9688" rx="3" ry="3" style="stroke: #383838; stroke-width: 1.0;" width="70" x="811" y="154"/><rect fill="#F8F8F8" height="5" style="stroke: #383838; stroke-width: 1.0;" width="10" x="806" y="159"/><rect fill="#F8F8F8" height="5" style="stroke: #383838; stroke-width: 1.0;" width="10" x="806" y="177.9688"/><text fill="#000000" font-family="Tahoma, sans-serif" font-size="12" lengthAdjust="spacingAndGlyphs" textLength="50" x="821" y="175.1387">express</text><!--MD5=[c0b2af393c9b1ffd64990f36f690e53f]
entity express-healthcheck--><rect fill="#F8F8F8" height="33.9688" rx="3" ry="3" style="stroke: #383838; stroke-width: 1.0;" width="149" x="647.5" y="154"/><rect fill="#F8F8F8" height="5" style="stroke: #383838; stroke-width: 1.0;" width="10" x="642.5" y="159"/><rect fill="#F8F8F8" height="5" style="stroke: #383838; stroke-width: 1.0;" width="10" x="642.5" y="177.9688"/><text fill="#000000" font-family="Tahoma, sans-serif" font-size="12" lengthAdjust="spacingAndGlyphs" textLength="129" x="657.5" y="175.1387">express-healthcheck</text><!--MD5=[b63562ad16c1c7ef658e32441eee3703]
entity express-session--><rect fill="#F8F8F8" height="33.9688" rx="3" ry="3" style="stroke: #383838; stroke-width: 1.0;" width="122" x="511" y="154"/><rect fill="#F8F8F8" height="5" style="stroke: #383838; stroke-width: 1.0;" width="10" x="506" y="159"/><rect fill="#F8F8F8" height="5" style="stroke: #383838; stroke-width: 1.0;" width="10" x="506" y="177.9688"/><text fill="#000000" font-family="Tahoma, sans-serif" font-size="12" lengthAdjust="spacingAndGlyphs" textLength="102" x="521" y="175.1387">express-session</text><!--MD5=[6a0d2676a47f541912d8f281ccd11e28]
entity hbs--><rect fill="#F8F8F8" height="33.9688" rx="3" ry="3" style="stroke: #383838; stroke-width: 1.0;" width="42" x="455" y="154"/><rect fill="#F8F8F8" height="5" style="stroke: #383838; stroke-width: 1.0;" width="10" x="450" y="159"/><rect fill="#F8F8F8" height="5" style="stroke: #383838; stroke-width: 1.0;" width="10" x="450" y="177.9688"/><text fill="#000000" font-family="Tahoma, sans-serif" font-size="12" lengthAdjust="spacingAndGlyphs" textLength="22" x="465" y="175.1387">hbs</text><!--MD5=[397b296eedc2e51237f0291481916692]
entity jquery--><rect fill="#F8F8F8" height="33.9688" rx="3" ry="3" style="stroke: #383838; stroke-width: 1.0;" width="58" x="383" y="154"/><rect fill="#F8F8F8" height="5" style="stroke: #383838; stroke-width: 1.0;" width="10" x="378" y="159"/><rect fill="#F8F8F8" height="5" style="stroke: #383838; stroke-width: 1.0;" width="10" x="378" y="177.9688"/><text fill="#000000" font-family="Tahoma, sans-serif" font-size="12" lengthAdjust="spacingAndGlyphs" textLength="38" x="393" y="175.1387">jquery</text><!--MD5=[e2d46f20eeb41aa7cb5c089073c1ecdf]
entity request--><rect fill="#F8F8F8" height="33.9688" rx="3" ry="3" style="stroke: #383838; stroke-width: 1.0;" width="68" x="301" y="154"/><rect fill="#F8F8F8" height="5" style="stroke: #383838; stroke-width: 1.0;" width="10" x="296" y="159"/><rect fill="#F8F8F8" height="5" style="stroke: #383838; stroke-width: 1.0;" width="10" x="296" y="177.9688"/><text fill="#000000" font-family="Tahoma, sans-serif" font-size="12" lengthAdjust="spacingAndGlyphs" textLength="48" x="311" y="175.1387">request</text><!--MD5=[0ef4e6eb613a590b86f4df9ac3408533]
entity vizchange-smhi--><rect fill="#F8F8F8" height="33.9688" rx="3" ry="3" style="stroke: #383838; stroke-width: 1.0;" width="115" x="171.5" y="154"/><rect fill="#F8F8F8" height="5" style="stroke: #383838; stroke-width: 1.0;" width="10" x="166.5" y="159"/><rect fill="#F8F8F8" height="5" style="stroke: #383838; stroke-width: 1.0;" width="10" x="166.5" y="177.9688"/><text fill="#000000" font-family="Tahoma, sans-serif" font-size="12" lengthAdjust="spacingAndGlyphs" textLength="95" x="181.5" y="175.1387">vizchange-smhi</text><!--MD5=[68ee57038bc370ff986cea0c2e700a48]
entity vizchange-stats--><rect fill="#F8F8F8" height="33.9688" rx="3" ry="3" style="stroke: #383838; stroke-width: 1.0;" width="119" x="38.5" y="154"/><rect fill="#F8F8F8" height="5" style="stroke: #383838; stroke-width: 1.0;" width="10" x="33.5" y="159"/><rect fill="#F8F8F8" height="5" style="stroke: #383838; stroke-width: 1.0;" width="10" x="33.5" y="177.9688"/><text fill="#000000" font-family="Tahoma, sans-serif" font-size="12" lengthAdjust="spacingAndGlyphs" textLength="99" x="48.5" y="175.1387">vizchange-stats</text><!--MD5=[f6052deb55ccd3f2b15b1987cde3c43b]
link <b>run</b> to server--><path d="M676.625,69 C679.505,69 682.385,69 685.266,69 " fill="none" id="&lt;b&gt;run&lt;/b&gt;-&gt;server" style="stroke: #000000; stroke-width: 1.0; stroke-dasharray: 7.0,7.0;"/><polygon fill="#000000" points="690.45,69,681.45,65,685.45,69,681.45,73,690.45,69" style="stroke: #000000; stroke-width: 1.0;"/><!--MD5=[26d798a55fad460c88cf00f34e17aa01]
link server to axios--><path d="M753.488,70.325 C879.772,71.858 1345.41,79.803 1401,114 C1413.81,121.8821 1422.23,136.7399 1427.35,149.1713 " fill="none" id="server-&gt;axios" style="stroke: #000000; stroke-width: 0.5;"/><polygon fill="#000000" points="1429.22,153.9717,1429.6797,144.1336,1427.4048,149.3128,1422.2255,147.038,1429.22,153.9717" style="stroke: #000000; stroke-width: 0.5;"/><!--MD5=[24e435254448a232c53a736c228097df]
link server to axios-cache-interceptor--><path d="M753.212,70.897 C847.947,73.914 1131.02,85.169 1218,114 C1242.51,122.1246 1267.27,137.9714 1284.76,150.7401 " fill="none" id="server-&gt;axios-cache-interceptor" style="stroke: #000000; stroke-width: 0.5;"/><polygon fill="#000000" points="1289.05,153.9135,1284.1918,145.3463,1285.0297,150.9407,1279.4353,151.7787,1289.05,153.9135" style="stroke: #000000; stroke-width: 0.5;"/><!--MD5=[a7491d01383b601135e43847eec62fcc]
link server to body-parser--><path d="M753.196,70.901 C833.379,73.636 1044.73,83.604 1107,114 C1123.5,122.0557 1137.87,137.149 1147.78,149.6379 " fill="none" id="server-&gt;body-parser" style="stroke: #000000; stroke-width: 0.5;"/><polygon fill="#000000" points="1150.97,153.7594,1148.6153,144.1962,1147.9058,149.8084,1142.2936,149.0989,1150.97,153.7594" style="stroke: #000000; stroke-width: 0.5;"/><!--MD5=[2e334e0a2c54ee90c2f252501a24fabe]
link server to climate-plots-config--><path d="M753.107,71.771 C798.184,75.261 883.538,85.378 950,114 C970.853,122.9804 991.594,138.2555 1006.44,150.5858 " fill="none" id="server-&gt;climate-plots-config" style="stroke: #000000; stroke-width: 0.5;"/><polygon fill="#000000" points="1010.47,153.9779,1006.1621,145.1212,1006.6453,150.7573,1001.0092,151.2406,1010.47,153.9779" style="stroke: #000000; stroke-width: 0.5;"/><!--MD5=[227ad5874de4642f6ff73a89dec4818f]
link server to cors--><path d="M753.357,71.106 C789.351,73.879 848.497,83.204 888,114 C899.349,122.8477 907.149,137.074 912.086,148.9733 " fill="none" id="server-&gt;cors" style="stroke: #000000; stroke-width: 0.5;"/><polygon fill="#000000" points="914.029,153.908,914.4544,144.0683,912.1976,149.2555,907.0104,146.9986,914.029,153.908" style="stroke: #000000; stroke-width: 0.5;"/><!--MD5=[7ef9c805ac978c2207750fa6fd33c54c]
link server to express--><path d="M743.786,78.565 C761.292,86.145 785.865,98.416 804,114 C815.717,124.069 826.154,137.9471 833.693,149.3683 " fill="none" id="server-&gt;express" style="stroke: #000000; stroke-width: 0.5;"/><polygon fill="#000000" points="836.538,153.772,835.0139,144.0418,833.8247,149.5722,828.2943,148.383,836.538,153.772" style="stroke: #000000; stroke-width: 0.5;"/><!--MD5=[3b740fba9c2b862a63dc933b0087e218]
link server to express-healthcheck--><path d="M722,82.262 C722,98.731 722,128.2603 722,148.4748 " fill="none" id="server-&gt;express-healthcheck" style="stroke: #000000; stroke-width: 0.5;"/><polygon fill="#000000" points="722,153.6549,726,144.6549,722,148.6549,718,144.6549,722,153.6549" style="stroke: #000000; stroke-width: 0.5;"/><!--MD5=[e511727490590b9e17a790db4a62e7a6]
link server to express-session--><path d="M712.945,81.574 C705.933,89.707 695.498,100.142 684,106 C666.679,114.824 658.646,105.846 641,114 C622.089,122.7386 603.93,137.8389 590.992,150.1585 " fill="none" id="server-&gt;express-session" style="stroke: #000000; stroke-width: 0.5;"/><polygon fill="#000000" points="587.149,153.8824,596.3955,150.491,590.7394,150.4026,590.8278,144.7464,587.149,153.8824" style="stroke: #000000; stroke-width: 0.5;"/><!--MD5=[d14f7e40a3a5626888630b139fbfcd50]
link server to hbs--><path d="M713.461,81.707 C706.564,90.136 696.046,100.887 684,106 C665.572,113.822 520.792,103.099 504,114 C491.846,121.8896 484.758,136.7471 480.755,149.1765 " fill="none" id="server-&gt;hbs" style="stroke: #000000; stroke-width: 0.5;"/><polygon fill="#000000" points="479.319,153.976,485.7305,146.4999,480.7519,149.1857,478.0661,144.2072,479.319,153.976" style="stroke: #000000; stroke-width: 0.5;"/><!--MD5=[cf5e8ea0778e74a732f2335b65f2c609]
link server to jquery--><path d="M713.476,81.743 C706.587,90.191 696.073,100.951 684,106 C659.795,116.124 470.812,101.039 448,114 C434.604,121.611 425.398,136.48 419.65,148.9845 " fill="none" id="server-&gt;jquery" style="stroke: #000000; stroke-width: 0.5;"/><polygon fill="#000000" points="417.542,153.8167,424.8061,147.1659,419.5407,149.2335,417.473,143.9681,417.542,153.8167" style="stroke: #000000; stroke-width: 0.5;"/><!--MD5=[2aca324d5edbbdb0ca6c8d92ed7e7328]
link server to request--><path d="M713.488,81.771 C706.605,90.233 696.093,100.998 684,106 C652.365,119.084 406.327,98.119 376,114 C361.55,121.5671 350.917,136.7909 344.105,149.4574 " fill="none" id="server-&gt;request" style="stroke: #000000; stroke-width: 0.5;"/><polygon fill="#000000" points="341.769,153.9894,349.4493,147.8239,344.0608,149.5456,342.3392,144.1571,341.769,153.9894" style="stroke: #000000; stroke-width: 0.5;"/><!--MD5=[6fbec0da2b93405e7161fa9e4f32109b]
link server to vizchange-smhi--><path d="M713.496,81.79 C706.617,90.262 696.106,101.031 684,106 C643.903,122.456 334.474,98.495 294,114 C274.84,121.3399 257.479,136.9948 245.529,149.8912 " fill="none" id="server-&gt;vizchange-smhi" style="stroke: #000000; stroke-width: 0.5;"/><polygon fill="#000000" points="241.998,153.7928,251.003,149.804,245.3532,150.0856,245.0715,144.4358,241.998,153.7928" style="stroke: #000000; stroke-width: 0.5;"/><!--MD5=[732384352309e95fa1c2fefe01874029]
link server to vizchange-stats--><path d="M713.503,81.807 C706.628,90.289 696.119,101.062 684,106 C630.589,127.7611 219.061,93.91 165,114 C145.425,121.2745 127.517,136.9344 115.15,149.8494 " fill="none" id="server-&gt;vizchange-stats" style="stroke: #000000; stroke-width: 0.5;"/><polygon fill="#000000" points="111.494,153.757,120.5636,149.9174,114.9099,150.1057,114.7215,144.452,111.494,153.757" style="stroke: #000000; stroke-width: 0.5;"/><script type="text/plantuml"><![CDATA[MD5=[b94f4d5656af44a6a5c1640d53d2673f]
@startuml

scale max 1920 width
top to bottom direction

skinparam nodesep 14
skinparam ranksep 28
skinparam monochrome true
skinparam shadowing false
skinparam defaultFontName Tahoma
skinparam defaultFontSize 12
skinparam roundCorner 6
skinparam dpi 150
skinparam arrowColor black
skinparam arrowThickness 0.5
skinparam packageTitleAlignment left

skinparam usecase {
  borderThickness 0.5
}

skinparam rectangle {
  borderThickness 0.5
}

skinparam component {
  borderThickness 1
}


package "Components" {
  (<b>run</b>)
  (server)
}

package "Dependency" {
  [axios]
  [axios-cache-interceptor]
  [body-parser]
  [climate-plots-config]
  [cors]
  [express]
  [express-healthcheck]
  [express-session]
  [hbs]
  [jquery]
  [request]
  [vizchange-smhi]
  [vizchange-stats]
}


(<b>run</b>) .[thickness=1]> (server)
(server) --> [axios]
(server) --> [axios-cache-interceptor]
(server) --> [body-parser]
(server) --> [climate-plots-config]
(server) --> [cors]
(server) --> [express]
(server) --> [express-healthcheck]
(server) --> [express-session]
(server) --> [hbs]
(server) --> [jquery]
(server) --> [request]
(server) --> [vizchange-smhi]
(server) --> [vizchange-stats]

@enduml


' View and edit on https://arkit.pro
]]></script></g></svg>